<mxfile host="app.diagrams.net" modified="2023-07-19T04:52:45.041Z" agent="Mozilla/5.0 (Windows NT 10.0; Win64; x64) AppleWebKit/537.36 (KHTML, like Gecko) Chrome/114.0.0.0 Safari/537.36 Edg/114.0.1823.67" version="21.6.3" etag="bSJ89FkKFw9JRL9ehIq0" type="github">
  <diagram name="Page-1" id="BX_syS7woaKttCpk6FLC">
    <mxGraphModel>
      <root>
        <mxCell id="0" />
        <mxCell id="1" parent="0" />
      </root>
    </mxGraphModel>
  </diagram>
</mxfile>
